<?xml version="1.0" standalone="no"?>
<!DOCTYPE svg PUBLIC "-//W3C//DTD SVG 20010904//EN"
 "http://www.w3.org/TR/2001/REC-SVG-20010904/DTD/svg10.dtd">
<svg version="1.0" xmlns="http://www.w3.org/2000/svg"
 width="1024.000000pt" height="327.000000pt" viewBox="0 0 1024.000000 327.000000"
 preserveAspectRatio="xMidYMid meet">

<g transform="translate(0.000000,327.000000) scale(0.100000,-0.100000)"
fill="#000000" stroke="none">
<path d="M3553 3237 c-133 -98 -268 -383 -433 -912 -82 -265 -86 -275 -102
-275 -7 0 -150 -11 -317 -25 -168 -14 -306 -23 -308 -22 -7 8 114 373 216 655
61 166 111 317 111 335 0 44 -31 90 -73 110 -63 30 -71 26 -133 -79 -129 -219
-215 -433 -344 -849 l-67 -220 -719 -13 c-396 -7 -869 -15 -1051 -18 l-333 -5
0 -78 0 -79 62 -6 c179 -18 476 -24 1195 -25 l792 -1 -10 -32 c-16 -55 -78
-407 -89 -503 -29 -257 -1 -325 133 -325 l57 0 0 58 c0 153 63 461 156 765 3
10 15 24 28 32 29 19 401 81 540 91 l109 7 -7 -44 c-4 -24 -29 -145 -57 -269
-75 -338 -110 -548 -116 -695 -8 -196 7 -231 109 -249 l36 -7 7 68 c12 114 53
348 91 512 44 193 164 653 173 664 4 4 51 -2 105 -13 54 -12 106 -18 117 -15
28 9 34 50 13 96 -20 46 -114 136 -150 145 -13 3 -24 8 -24 11 0 3 31 98 69
212 99 296 199 544 310 767 l96 194 -56 30 c-68 36 -95 37 -136 7z"/>
<path d="M7477 3200 c-85 -67 -330 -584 -461 -972 -30 -90 -60 -181 -65 -203
-19 -72 -17 -71 -145 -4 -144 75 -187 81 -282 34 -108 -53 -254 -221 -341
-394 -113 -224 -138 -491 -55 -585 26 -28 152 -86 190 -86 56 0 113 38 236
158 88 87 117 111 113 92 -17 -73 -68 -458 -65 -489 3 -32 8 -39 48 -58 25
-12 66 -25 92 -28 44 -7 47 -5 61 22 8 15 29 96 47 178 98 461 406 1243 824
2096 40 81 64 142 60 152 -13 35 -157 107 -214 107 -10 0 -29 -9 -43 -20z
m-700 -1316 c23 -23 25 -31 20 -83 -7 -82 -41 -151 -131 -271 -230 -306 -336
-372 -336 -210 0 105 74 292 179 452 39 60 61 84 103 107 70 40 128 42 165 5z"/>
<path d="M8383 2355 c-12 -9 -44 -55 -70 -103 -186 -344 -469 -758 -623 -913
-77 -77 -120 -100 -146 -78 -44 36 30 317 175 662 39 93 71 175 71 183 0 19
-119 94 -151 94 -38 0 -68 -35 -137 -162 -177 -331 -263 -652 -209 -780 16
-39 69 -78 174 -132 60 -30 137 -35 183 -11 59 30 148 115 240 228 52 64 96
114 98 112 14 -14 -157 -398 -194 -436 l-28 -29 31 0 c18 0 38 7 47 15 17 18
146 22 146 5 0 -6 -15 -10 -32 -9 -49 3 -119 -11 -112 -23 4 -6 -5 -9 -22 -8
-16 1 -47 2 -69 1 -30 -1 -36 -4 -25 -11 8 -6 48 -10 88 -9 40 1 75 -1 79 -4
3 -4 -7 -7 -23 -7 -16 -1 -99 -7 -185 -14 l-155 -12 -117 -57 c-207 -99 -369
-231 -470 -385 -119 -178 -114 -283 16 -376 110 -78 174 -91 275 -56 250 88
524 375 730 767 l70 132 -42 10 c-34 9 -36 10 -8 7 18 -1 35 1 38 5 5 8 1996
3 2142 -5 64 -4 72 -2 72 13 0 14 -14 20 -67 30 -126 22 -636 49 -945 50 -119
1 -227 5 -240 10 -13 4 -211 11 -440 15 -366 7 -417 6 -412 -7 8 -22 -5 -25
-56 -17 -38 6 -41 8 -15 10 23 2 18 5 -20 10 l-50 7 50 1 50 2 235 585 c129
322 239 596 245 611 11 31 5 35 -85 65 -36 12 -70 24 -75 26 -6 2 -20 -4 -32
-12z m-708 -1552 c-10 -42 -79 -154 -145 -236 -172 -214 -426 -396 -484 -348
-69 58 83 303 269 436 84 60 314 173 354 175 9 0 11 -8 6 -27z"/>
<path d="M5887 2306 c-8 -9 -20 -48 -27 -88 -59 -360 -162 -652 -287 -816 -88
-115 -177 -153 -222 -96 -40 51 -28 123 73 423 33 99 42 139 35 152 -12 24
-133 81 -162 77 -17 -2 -40 -38 -110 -173 -110 -210 -197 -343 -275 -417 -81
-77 -123 -94 -142 -58 -26 49 48 227 240 575 55 99 84 164 88 193 4 38 1 45
-31 76 -44 41 -116 71 -151 62 -58 -14 -221 -297 -284 -493 -17 -50 -38 -125
-47 -167 -16 -73 -19 -78 -59 -101 -60 -35 -118 -54 -193 -61 -77 -8 -76 -18
-15 121 50 114 66 181 65 275 -2 129 -42 204 -145 271 -106 68 -181 62 -304
-26 -74 -53 -132 -122 -176 -209 -37 -74 -73 -127 -133 -197 -59 -69 -91 -132
-116 -227 -46 -181 -4 -275 160 -361 112 -58 154 -57 252 7 41 27 100 70 132
95 80 66 117 87 153 87 64 0 210 32 276 60 47 19 70 25 72 17 29 -103 77 -164
161 -203 106 -50 157 -24 305 155 68 84 86 100 91 85 3 -11 12 -37 19 -59 30
-98 125 -196 223 -229 209 -70 404 84 563 444 113 257 218 656 186 707 -8 13
-149 98 -179 107 -13 4 -27 1 -36 -8z m-1712 -382 c52 -56 41 -147 -35 -301
-48 -99 -143 -243 -159 -243 -18 0 -95 66 -112 95 -35 60 -34 79 6 123 l36 41
-21 41 -21 42 34 52 c19 28 55 72 81 98 83 81 148 99 191 52z m-393 -538 c15
-19 48 -44 73 -56 25 -12 45 -24 45 -26 0 -8 -75 -51 -109 -62 -28 -10 -38 -9
-58 3 -12 9 -23 25 -23 37 0 28 31 138 39 138 3 0 18 -15 33 -34z"/>
</g>
</svg>
